<svg id="_x31__x2C_5" enable-background="new 0 0 36 36" height="512" viewBox="0 0 36 36" width="512" xmlns="http://www.w3.org/2000/svg"><path d="m8.377 4.167c6.917 0 11.667-3.583 15-3.583s10.333 1.916 10.333 17.249-9.417 17.583-13.083 17.583c-17.167.001-24.5-31.249-12.25-31.249z" fill="#f3f3f1"/><g fill="#a4afc1"><path d="m27.842 3.467h1v2h-1z" transform="matrix(.707 -.707 .707 .707 5.143 21.349)"/><path d="m31.908 7.533h1v2h-1z" transform="matrix(.707 -.707 .707 .707 3.458 25.415)"/><path d="m31.232 3.967h2v1h-2z" transform="matrix(.707 -.707 .707 .707 6.282 24.099)"/></g><path d="m29.25 9.75v1.5h-22.5v-1.5c0-1.1.9-2 2-2h18.5c1.1 0 2 .9 2 2z" fill="#2fdf84"/><path d="m29.25 11.25v15c0 1.1-.9 2-2 2h-18.5c-1.1 0-2-.9-2-2v-15z" fill="#efefef"/><path d="m20 16.75c0-1.105-.895-2-2-2s-2 .895-2 2h-.75v5.75c0 1.519 1.231 2.75 2.75 2.75s2.75-1.231 2.75-2.75v-5.75z" fill="#2fdf84"/><path d="m11 7.75h-2.25c-1.1 0-2 .9-2 2v1.5h2.25v-1.5c0-1.1.9-2 2-2z" fill="#00b871"/><path d="m9 26.25v-15h-2.25v15c0 1.1.9 2 2 2h2.25c-1.1 0-2-.9-2-2z" fill="#d5dbe1"/><path d="m17.5 22.5v-5.75h.75c0-.687.347-1.293.875-1.653-.321-.219-.708-.347-1.125-.347-1.105 0-2 .895-2 2h-.75v5.75c0 1.519 1.231 2.75 2.75 2.75.402 0 .781-.091 1.125-.246-.956-.43-1.625-1.387-1.625-2.504z" fill="#00b871"/><path d="m20 17.5h-4c-.414 0-.75-.336-.75-.75 0-1.517 1.233-2.75 2.75-2.75s2.75 1.233 2.75 2.75c0 .414-.336.75-.75.75zm-2.999-1.5h1.998c-.228-.304-.591-.5-.999-.5s-.771.196-.999.5z"/><path d="m19.6 16.3c-.068 0-.139-.01-.208-.029-.398-.115-.628-.531-.513-.929.398-1.379 1.683-2.342 3.121-2.342.414 0 .75.336.75.75s-.336.75-.75.75c-.774 0-1.466.518-1.68 1.258-.094.329-.394.542-.72.542z"/><path d="m16.4 16.3c-.326 0-.626-.213-.721-.542-.213-.74-.905-1.258-1.679-1.258-.414 0-.75-.336-.75-.75s.336-.75.75-.75c1.438 0 2.723.963 3.121 2.342.115.397-.114.813-.513.929-.069.019-.139.029-.208.029z"/><path d="m20.749 20c-.336 0-.642-.228-.727-.568-.101-.401.144-.809.546-.909l1.665-.416.846-1.691c.186-.371.637-.521 1.006-.336.371.186.521.636.336 1.006l-1 2c-.098.196-.276.34-.489.393l-2 .5c-.061.014-.122.021-.183.021z"/><path d="m23.751 25c-.275 0-.54-.151-.672-.415l-.886-1.771-1.771-.858c-.373-.181-.528-.629-.348-1.002.182-.373.629-.528 1.002-.348l2 .97c.148.072.27.191.344.34l1 2c.186.37.035.82-.336 1.006-.106.053-.221.078-.333.078z"/><path d="m15.251 20c-.061 0-.122-.007-.183-.022l-2-.5c-.213-.053-.392-.196-.489-.393l-1-2c-.186-.37-.035-.82.336-1.006s.82-.036 1.006.336l.846 1.691 1.665.416c.402.101.646.508.546.909-.085.341-.391.569-.727.569z"/><path d="m12.249 25c-.112 0-.227-.025-.334-.079-.371-.186-.521-.636-.336-1.006l1-2c.074-.148.195-.268.344-.34l2-.97c.376-.18.821-.024 1.002.348.181.373.025.821-.348 1.002l-1.771.858-.886 1.771c-.131.265-.396.416-.671.416z"/><path d="m18 26c-1.93 0-3.5-1.57-3.5-3.5v-5.75c0-.414.336-.75.75-.75h5.5c.414 0 .75.336.75.75v5.75c0 1.93-1.57 3.5-3.5 3.5zm-2-8.5v5c0 1.103.897 2 2 2s2-.897 2-2v-5z"/><path d="m18 26c-.414 0-.75-.336-.75-.75v-8.5c0-.414.336-.75.75-.75s.75.336.75.75v8.5c0 .414-.336.75-.75.75z"/><path d="m27.25 29h-18.5c-1.517 0-2.75-1.233-2.75-2.75v-16.5c0-1.517 1.233-2.75 2.75-2.75h18.5c1.517 0 2.75 1.233 2.75 2.75v16.5c0 1.517-1.233 2.75-2.75 2.75zm-18.5-20.5c-.689 0-1.25.561-1.25 1.25v16.5c0 .689.561 1.25 1.25 1.25h18.5c.689 0 1.25-.561 1.25-1.25v-16.5c0-.689-.561-1.25-1.25-1.25z"/><path d="m29.25 12h-22.5c-.414 0-.75-.336-.75-.75s.336-.75.75-.75h22.5c.414 0 .75.336.75.75s-.336.75-.75.75z"/></svg>