<svg enable-background="new 0 0 36 36" height="512" viewBox="0 0 36 36" width="512" xmlns="http://www.w3.org/2000/svg"><g id="bg"><g><path d="m8.114 5.564c-1.805 6.677-6.504 10.327-7.374 13.545s-.847 10.475 13.955 14.477 19.432-4.501 20.388-8.041c4.481-16.572-23.772-31.807-26.969-19.981z" fill="#efefef"/></g></g><g id="color"><g><path d="m26.66 12.37-3.02 3.03-3.54-3.54 3.03-3.02c.58-.59 1.53-.59 2.12 0l1.41 1.41c.59.59.59 1.54 0 2.12z" fill="#f3f3f1"/></g><g><path d="m21.85 12.86 3.03-3.02c.262-.267.602-.396.949-.421l-.579-.579c-.59-.59-1.54-.59-2.12 0l-3.03 3.02 3.54 3.54.374-.376z" fill="#d5dbe1"/></g><g><path d="m23.64 15.4-10.76 10.76-4.63 1.09 1.09-4.63 10.76-10.76z" fill="#2fdf84"/></g><g><path d="m11.09 23.62 10.385-10.385-1.375-1.375-10.76 10.76-1.09 4.63 2.102-.495z" fill="#00b871"/></g><g><g><path d="m13.375 5.842h2v1h-2z" fill="#a4afc1"/></g><g><path d="m7.625 5.842h2v1h-2z" fill="#a4afc1"/></g><g><path d="m11.125 2.342h1v2h-1z" fill="#a4afc1"/></g><g><path d="m11.125 8.092h1v2h-1z" fill="#a4afc1"/></g></g><g><path d="m5.629 32.5c-.827 0-1.5-.673-1.5-1.5s.673-1.5 1.5-1.5 1.5.673 1.5 1.5-.673 1.5-1.5 1.5zm0-2c-.276 0-.5.224-.5.5s.224.5.5.5.5-.224.5-.5-.224-.5-.5-.5z" fill="#a4afc1"/></g></g><g id="regular"><g><path d="m15.75 26.5h13.5v1.5h-13.5z"/></g><g><g><path d="m8.25 28c-.197 0-.388-.077-.53-.22-.184-.184-.259-.449-.2-.702l1.09-4.625c.032-.136.101-.26.2-.358l13.789-13.789c.848-.849 2.332-.851 3.182 0l1.414 1.414c.425.425.659.99.659 1.591s-.234 1.167-.659 1.591l-13.789 13.788c-.099.099-.223.168-.358.2l-4.625 1.09c-.058.014-.116.02-.173.02zm1.771-4.996-.763 3.238 3.238-.763 13.638-13.638c.142-.142.22-.33.22-.53s-.078-.389-.22-.53l-1.414-1.415c-.283-.283-.778-.283-1.06 0z"/></g><g><path d="m21.121 11.129h1.5v5h-1.5z" transform="matrix(.707 -.707 .707 .707 -3.231 19.457)"/></g></g></g></svg>