<?xml version="1.0" encoding="UTF-8" standalone="no"?>
<svg
   xmlns:dc="http://purl.org/dc/elements/1.1/"
   xmlns:cc="http://creativecommons.org/ns#"
   xmlns:rdf="http://www.w3.org/1999/02/22-rdf-syntax-ns#"
   xmlns:svg="http://www.w3.org/2000/svg"
   xmlns="http://www.w3.org/2000/svg"
   xmlns:sodipodi="http://sodipodi.sourceforge.net/DTD/sodipodi-0.dtd"
   xmlns:inkscape="http://www.inkscape.org/namespaces/inkscape"
   version="1.1"
   id="svg2"
   width="233.05"
   height="279.41"
   viewBox="0 0 466.08584 558.8299"
   sodipodi:docname="Logotipo_Verti_Color.svg"
   inkscape:version="1.0.1 (3bc2e813f5, 2020-09-07)">
  <metadata
     id="metadata8">
    <rdf:RDF>
      <cc:Work
         rdf:about="">
        <dc:format>image/svg+xml</dc:format>
        <dc:type
           rdf:resource="http://purl.org/dc/dcmitype/StillImage" />
        <dc:title></dc:title>
      </cc:Work>
    </rdf:RDF>
  </metadata>
  <defs
     id="defs6">
    <clipPath
       id="clipPath22"
       clipPathUnits="userSpaceOnUse">
      <path
         id="path20"
         d="m 2569.82,8631.35 c -244.81,363.51 -865.84,290.64 -1110.53,654.23 -133.68,198.63 -103.72,472.72 11.46,682.62 10.9,19.88 22.64,39.2 34.76,58.2 -121.33,-113.21 -228.68,-239.85 -317.6,-377.23 -169.81,-262.35 -271.515,-582.79 -212.512,-889.68 31.142,-161.99 104.832,-312.19 177.752,-460.16 189.58,-384.69 379.17,-769.38 568.75,-1154.07 48.97,-99.38 100.86,-201.87 167.41,-289.9 208.23,258.66 396.05,533.75 560.77,822.08 167.86,293.84 308.78,673.23 119.74,953.91 z" />
    </clipPath>
    <linearGradient
       id="linearGradient28"
       spreadMethod="pad"
       gradientTransform="matrix(1201.24,1652.81,1652.81,-1201.24,514.365,6838.83)"
       gradientUnits="userSpaceOnUse"
       y2="0"
       x2="1"
       y1="0"
       x1="0">
      <stop
         id="stop24"
         offset="0"
         style="stop-opacity:1;stop-color:#7715a3" />
      <stop
         id="stop26"
         offset="1"
         style="stop-opacity:1;stop-color:#8021bf" />
    </linearGradient>
    <clipPath
       id="clipPath38"
       clipPathUnits="userSpaceOnUse">
      <path
         id="path36"
         d="m 3452.93,8274.34 c -170.62,363.25 -245.92,823.04 -598.34,1015.04 -269.99,147.1 -645.01,92.3 -851.11,320.46 -149.18,165.16 -144.33,426.76 -48.12,627.36 28.03,58.5 62.47,112.9 101.1,164.5 -201.6,-96.8 -388.79,-224 -550.95,-375.3 -12.12,-19 -23.86,-38.32 -34.76,-58.2 -115.18,-209.9 -145.14,-483.99 -11.46,-682.62 244.69,-363.59 865.72,-290.72 1110.53,-654.23 189.04,-280.68 48.12,-660.07 -119.74,-953.91 -164.72,-288.33 -352.54,-563.42 -560.77,-822.08 50.45,-66.74 109.31,-125.2 181.83,-167.58 217.2,-126.9 491.67,-74.2 732.98,-3.12 557.46,164.22 1091.33,407.87 1581.4,720.2 -402.84,163.7 -747.38,475.13 -932.59,869.48 z" />
    </clipPath>
    <linearGradient
       id="linearGradient44"
       spreadMethod="pad"
       gradientTransform="matrix(-3246.27,-1446.4,-1446.4,3246.27,2768.68,8664.3)"
       gradientUnits="userSpaceOnUse"
       y2="0"
       x2="1"
       y1="0"
       x1="0">
      <stop
         id="stop40"
         offset="0"
         style="stop-opacity:1;stop-color:#781da5" />
      <stop
         id="stop42"
         offset="1"
         style="stop-opacity:1;stop-color:#560c6e" />
    </linearGradient>
    <clipPath
       id="clipPath54"
       clipPathUnits="userSpaceOnUse">
      <path
         id="path52"
         d="m 2847.29,10608.3 c -272.44,-14.5 -542.56,-87.5 -790.83,-206.6 -38.63,-51.6 -73.07,-106 -101.1,-164.5 -96.21,-200.6 -101.06,-462.2 48.12,-627.36 206.1,-228.16 581.12,-173.36 851.11,-320.46 352.42,-192 427.72,-651.79 598.34,-1015.04 185.21,-394.35 529.75,-705.78 932.59,-869.48 156.16,99.53 307.98,205.89 454.56,319.06 190.05,146.73 376.06,310.09 486.09,523.49 19,36.85 35.1,75.6 48.39,115.38 -254.82,-66.18 -529.32,-57.82 -775.91,35.09 -430.14,162.04 -737.52,537.56 -1023.72,897.24 -102.9,129.32 -211.15,273.91 -205.84,439.09 4.47,138.8 89.3,261.29 179.25,367.09 20.87,24.6 42.32,49 63.57,73.5 -0.43,1.3 -0.77,2.5 -1.22,3.7 -106.26,294.5 -450.83,446.4 -763.4,429.8 z" />
    </clipPath>
    <linearGradient
       id="linearGradient60"
       spreadMethod="pad"
       gradientTransform="matrix(2029.37,1933.06,1933.06,-2029.37,1587.21,7277.62)"
       gradientUnits="userSpaceOnUse"
       y2="0"
       x2="1"
       y1="0"
       x1="0">
      <stop
         id="stop56"
         offset="0"
         style="stop-opacity:1;stop-color:#4b0a5c" />
      <stop
         id="stop58"
         offset="1"
         style="stop-opacity:1;stop-color:#64158c" />
    </linearGradient>
    <clipPath
       id="clipPath70"
       clipPathUnits="userSpaceOnUse">
      <path
         id="path68"
         d="m 3369.09,9734.21 c -5.31,-165.18 102.94,-309.77 205.84,-439.09 286.2,-359.68 593.58,-735.2 1023.72,-897.24 246.59,-92.91 521.09,-101.27 775.91,-35.09 63.67,190.61 58.1,406.67 -54.61,570.24 -172.93,250.98 -517.14,297.37 -819.68,334.39 -302.53,37.02 -650.26,120.77 -777.47,397.74 -72.8,158.51 -52.84,345.24 -110.89,509.64 -21.25,-24.5 -42.7,-48.9 -63.57,-73.5 -89.95,-105.8 -174.78,-228.29 -179.25,-367.09 z" />
    </clipPath>
    <linearGradient
       id="linearGradient76"
       spreadMethod="pad"
       gradientTransform="matrix(938.366,918.344,918.344,-938.366,3402.08,8200.94)"
       gradientUnits="userSpaceOnUse"
       y2="0"
       x2="1"
       y1="0"
       x1="0">
      <stop
         id="stop72"
         offset="0"
         style="stop-opacity:1;stop-color:#2e0247" />
      <stop
         id="stop74"
         offset="1"
         style="stop-opacity:1;stop-color:#4e0770" />
    </linearGradient>
    <clipPath
       id="clipPath128"
       clipPathUnits="userSpaceOnUse">
      <path
         id="path126"
         d="m 10523.1,8866.5 c -218.5,-146.77 -364.1,-362.15 -517.4,-564.91 -153.39,-202.76 -330.3,-405.77 -579.61,-505.1 -267.04,-106.39 -579.55,-78.47 -852.29,-172.45 -186.53,-64.28 -339.12,-179.34 -483.63,-305.64 146.21,-32.99 292.42,-65.99 438.62,-98.99 371.25,-83.78 759.57,-167.87 1132.29,-89.58 507.82,106.67 887.22,497.82 1120.22,918.89 164.7,297.64 272.1,631.57 283.3,962.35 -185.8,19.48 -387.9,-41.39 -541.5,-144.57 z" />
    </clipPath>
    <linearGradient
       id="linearGradient134"
       spreadMethod="pad"
       gradientTransform="matrix(790.023,-635.871,-635.871,-790.023,9301.92,8386.45)"
       gradientUnits="userSpaceOnUse"
       y2="0"
       x2="1"
       y1="0"
       x1="0">
      <stop
         id="stop130"
         offset="0"
         style="stop-opacity:1;stop-color:#160247" />
      <stop
         id="stop132"
         offset="1"
         style="stop-opacity:1;stop-color:#280770" />
    </linearGradient>
    <clipPath
       id="clipPath144"
       clipPathUnits="userSpaceOnUse">
      <path
         id="path142"
         d="m 10365.9,9375.19 c -265.4,-138.54 -474.01,-347.84 -694.84,-539.44 -220.83,-191.59 -470.13,-373.89 -769.3,-435.24 -534.23,-109.57 -1053.98,186.5 -1582.83,315.43 -336.86,82.13 -693.46,93.04 -1036.98,38.04 53.1,-155.78 127.56,-305.62 196.26,-460.77 103.03,-232.66 135.42,-459.5 380.74,-615.95 193.97,-123.71 430.29,-178.1 660.69,-230.1 190.17,-42.92 380.36,-85.84 570.53,-128.76 144.51,126.3 297.1,241.36 483.63,305.64 272.74,93.98 585.25,66.06 852.29,172.45 249.31,99.33 426.22,302.34 579.61,505.1 153.3,202.76 298.9,418.14 517.4,564.91 153.6,103.18 355.7,164.05 541.5,144.57 5.6,167.94 -13.7,335.02 -62.8,496.18 -214.6,24.71 -445.3,-32.54 -635.9,-132.06 z" />
    </clipPath>
    <linearGradient
       id="linearGradient150"
       spreadMethod="pad"
       gradientTransform="matrix(492.849,-1443.34,-1443.34,-492.849,8474.34,9621.25)"
       gradientUnits="userSpaceOnUse"
       y2="0"
       x2="1"
       y1="0"
       x1="0">
      <stop
         id="stop146"
         offset="0"
         style="stop-opacity:1;stop-color:#2a0a5c" />
      <stop
         id="stop148"
         offset="1"
         style="stop-opacity:1;stop-color:#39158c" />
    </linearGradient>
    <clipPath
       id="clipPath160"
       clipPathUnits="userSpaceOnUse">
      <path
         id="path158"
         d="m 9445.62,10430.4 c -483.32,-117.8 -846.15,-530.29 -1343.31,-583.2 -466.3,-49.61 -952.03,232.8 -1388.82,77.32 -107.26,-38.19 -198.07,-100.09 -271.82,-177.24 448.48,-59.12 858.34,-257.78 1270.53,-429.43 423.4,-176.33 885.19,-329.62 1346.83,-268.58 445.49,58.89 825.85,307.84 1204.57,526.92 180.9,104.67 373.9,205.54 574.7,276.86 -289.5,425.65 -861.69,706.75 -1392.68,577.35 z" />
    </clipPath>
    <linearGradient
       id="linearGradient166"
       spreadMethod="pad"
       gradientTransform="matrix(68.0923,-1344.81,-1344.81,-68.0923,8590.48,10778.3)"
       gradientUnits="userSpaceOnUse"
       y2="0"
       x2="1"
       y1="0"
       x1="0">
      <stop
         id="stop162"
         offset="0"
         style="stop-opacity:1;stop-color:#4215a3" />
      <stop
         id="stop164"
         offset="1"
         style="stop-opacity:1;stop-color:#4b21bf" />
    </linearGradient>
    <clipPath
       id="clipPath176"
       clipPathUnits="userSpaceOnUse">
      <path
         id="path174"
         d="m 9059.03,9049.27 c -461.64,-61.04 -923.43,92.25 -1346.83,268.58 -412.19,171.65 -822.05,370.31 -1270.53,429.43 -160.08,-167.47 -239.59,-406.96 -231.33,-632.8 4.63,-126.51 32.29,-245.13 71.61,-360.5 343.52,55 700.12,44.09 1036.98,-38.04 528.85,-128.93 1048.6,-425 1582.83,-315.43 299.17,61.35 548.47,243.65 769.3,435.24 220.83,191.6 429.44,400.9 694.84,539.44 190.6,99.52 421.3,156.77 635.9,132.06 -17.6,57.63 -38.7,114.55 -64.2,170.42 -27.6,60.61 -61.1,119.2 -99.3,175.38 -200.8,-71.32 -393.8,-172.19 -574.7,-276.86 -378.72,-219.08 -759.08,-468.03 -1204.57,-526.92 z" />
    </clipPath>
    <linearGradient
       id="linearGradient182"
       spreadMethod="pad"
       gradientTransform="matrix(-34.0135,1428.6,1428.6,34.0135,8617.01,8849.98)"
       gradientUnits="userSpaceOnUse"
       y2="0"
       x2="1"
       y1="0"
       x1="0">
      <stop
         id="stop178"
         offset="0"
         style="stop-opacity:1;stop-color:#471da5" />
      <stop
         id="stop180"
         offset="1"
         style="stop-opacity:1;stop-color:#2f0c6e" />
    </linearGradient>
    <clipPath
       id="clipPath234"
       clipPathUnits="userSpaceOnUse">
      <path
         id="path232"
         d="m 3608.68,3852.44 c -4.88,-304.02 -108.82,-620.15 0.66,-903.82 131.08,-339.64 512.23,-498.43 854.95,-621.23 278.89,-99.92 557.79,-199.85 836.68,-299.77 18.89,30.34 37.44,61.73 55.25,95.32 252.71,476.5 221.17,1053.85 84.64,1577.95 -130.61,37.36 -261.22,74.73 -391.83,112.1 -329.47,94.26 -674.64,197.59 -914.74,442.11 -181.88,185.24 -284.14,432.97 -437.64,642.32 -43.75,59.68 -95.16,116.84 -151.92,167.27 -234.43,9.57 -468.86,19.13 -703.28,28.7 450.27,-238.52 775.48,-726.98 767.23,-1240.95 z" />
    </clipPath>
    <linearGradient
       id="linearGradient240"
       spreadMethod="pad"
       gradientTransform="matrix(1444.43,1563.28,1563.28,-1444.43,2931.2,2326.7)"
       gradientUnits="userSpaceOnUse"
       y2="0"
       x2="1"
       y1="0"
       x1="0">
      <stop
         id="stop236"
         offset="0"
         style="stop-opacity:1;stop-color:#4e218e" />
      <stop
         id="stop238"
         offset="1"
         style="stop-opacity:1;stop-color:#a12cb3" />
    </linearGradient>
    <clipPath
       id="clipPath250"
       clipPathUnits="userSpaceOnUse">
      <path
         id="path248"
         d="m 4134.29,4255.1 c 240.1,-244.52 585.27,-347.85 914.74,-442.11 130.61,-37.37 261.22,-74.74 391.83,-112.1 -5.42,20.82 -10.95,41.58 -16.7,62.23 -125.01,449.28 -347.17,911.48 -761.48,1125.56 -269.03,139.01 -582.71,154.17 -885.28,166.52 -77.56,3.16 -155.11,6.33 -232.67,9.49 56.76,-50.43 108.17,-107.59 151.92,-167.27 153.5,-209.35 255.76,-457.08 437.64,-642.32 z" />
    </clipPath>
    <linearGradient
       id="linearGradient256"
       spreadMethod="pad"
       gradientTransform="matrix(1753.29,261.523,261.523,-1753.29,2966.29,4155.09)"
       gradientUnits="userSpaceOnUse"
       y2="0"
       x2="1"
       y1="0"
       x1="0">
      <stop
         id="stop252"
         offset="0"
         style="stop-opacity:1;stop-color:#5f177a" />
      <stop
         id="stop254"
         offset="1"
         style="stop-opacity:1;stop-color:#64199f" />
    </linearGradient>
    <clipPath
       id="clipPath266"
       clipPathUnits="userSpaceOnUse">
      <path
         id="path264"
         d="m 3778.06,2248.92 c -226.78,52.51 -461.44,74.81 -680.62,153.19 -219.18,78.38 -429.24,226.63 -507.4,445.89 -135.43,379.89 164.27,770.44 207.26,1171.45 46.1,429.94 -218.22,844.51 -569.3,1098.82 -318.99,11.47 -665.66,3.02 -900.12,-209.53 -337.087,-305.59 -256.51,-857.77 -67.75,-1271.76 392.68,-861.27 1144.69,-1533.77 2029.19,-1860.78 550.37,-203.4 1164.75,-402 1636.95,-126.9 -325.54,290.6 -722.94,501.16 -1148.21,599.62 z" />
    </clipPath>
    <linearGradient
       id="linearGradient272"
       spreadMethod="pad"
       gradientTransform="matrix(1794.15,141.438,141.438,-1794.15,974.536,3142.17)"
       gradientUnits="userSpaceOnUse"
       y2="0"
       x2="1"
       y1="0"
       x1="0">
      <stop
         id="stop268"
         offset="0"
         style="stop-opacity:1;stop-color:#cf36b2" />
      <stop
         id="stop270"
         offset="1"
         style="stop-opacity:1;stop-color:#de2f94" />
    </linearGradient>
    <clipPath
       id="clipPath282"
       clipPathUnits="userSpaceOnUse">
      <path
         id="path280"
         d="m 4464.29,2327.39 c -342.72,122.8 -723.87,281.59 -854.95,621.23 -109.48,283.67 -5.54,599.8 -0.66,903.82 8.25,513.97 -316.96,1002.43 -767.23,1240.95 -190.1,7.75 -380.2,15.51 -570.29,23.27 -14.29,0.58 -28.73,1.09 -43.16,1.61 351.08,-254.31 615.4,-668.88 569.3,-1098.82 -42.99,-401.01 -342.69,-791.56 -207.26,-1171.45 78.16,-219.26 288.22,-367.51 507.4,-445.89 219.18,-78.38 453.84,-100.68 680.62,-153.19 425.27,-98.46 822.67,-309.02 1148.21,-599.62 139,81 265.62,203.2 374.7,378.32 -278.89,99.92 -557.79,199.85 -836.68,299.77 z" />
    </clipPath>
    <linearGradient
       id="linearGradient288"
       spreadMethod="pad"
       gradientTransform="matrix(-2030.61,-824.808,-824.808,2030.61,3544.37,3370.48)"
       gradientUnits="userSpaceOnUse"
       y2="0"
       x2="1"
       y1="0"
       x1="0">
      <stop
         id="stop284"
         offset="0"
         style="stop-opacity:1;stop-color:#c42bb8" />
      <stop
         id="stop286"
         offset="1"
         style="stop-opacity:1;stop-color:#6a2b9e" />
    </linearGradient>
    <clipPath
       id="clipPath340"
       clipPathUnits="userSpaceOnUse">
      <path
         id="path338"
         d="m 8750.44,2831.34 c -367.49,85.25 -774.16,-108.56 -1120.63,40.69 -334.34,144.03 -469.91,551.06 -479.29,914.99 -9.16,355.13 63.83,715.14 -2,1063.42 -72.36,-46.84 -138.63,-102.47 -196.3,-168.83 -247.72,-285.05 -278.14,-693.19 -296.68,-1070.39 -20.83,-423.57 -36.33,-871.88 166.68,-1244.22 210.84,-386.7 624.9,-622.7 1045.92,-752.1 720.11,-221.4 1549.71,-161.3 2179.86,233.8 -122.21,64.6 -237.22,142.7 -341.65,233.66 -309.39,269.56 -556.17,656.25 -955.91,748.98 z" />
    </clipPath>
    <linearGradient
       id="linearGradient346"
       spreadMethod="pad"
       gradientTransform="matrix(1347.94,1802.87,1802.87,-1347.94,6616.03,747.2)"
       gradientUnits="userSpaceOnUse"
       y2="0"
       x2="1"
       y1="0"
       x1="0">
      <stop
         id="stop342"
         offset="0"
         style="stop-opacity:1;stop-color:#990750" />
      <stop
         id="stop344"
         offset="1"
         style="stop-opacity:1;stop-color:#b50d72" />
    </linearGradient>
    <clipPath
       id="clipPath356"
       clipPathUnits="userSpaceOnUse">
      <path
         id="path354"
         d="m 8970.94,4455.75 c 31.74,-211.27 173.13,-432.77 385.98,-451.09 194.53,-16.74 379.06,140.68 570.44,102.02 235.74,-47.62 310.54,-336.53 409.34,-555.83 110.5,-245.53 311.8,-441.92 551.1,-564.13 137.1,488.38 99.2,1027.13 -203.5,1424.62 -331.9,435.72 -1046.82,617.99 -1719.61,674.23 15.86,-209.57 -24.97,-421.93 6.25,-629.82 z" />
    </clipPath>
    <linearGradient
       id="linearGradient362"
       spreadMethod="pad"
       gradientTransform="matrix(623.422,1583.83,1583.83,-623.422,9656.02,3349.57)"
       gradientUnits="userSpaceOnUse"
       y2="0"
       x2="1"
       y1="0"
       x1="0">
      <stop
         id="stop358"
         offset="0"
         style="stop-opacity:1;stop-color:#3d0022" />
      <stop
         id="stop360"
         offset="1"
         style="stop-opacity:1;stop-color:#660235" />
    </linearGradient>
    <clipPath
       id="clipPath372"
       clipPathUnits="userSpaceOnUse">
      <path
         id="path370"
         d="m 10536.4,2392.21 c -174.5,187.39 -273.3,430.61 -401.6,652.21 -128.2,221.61 -306.87,437.38 -554.99,500.51 -336.41,85.58 -699.3,-133.38 -1031.22,-31.75 -250.27,76.63 -416.29,321.11 -489.6,572.38 -73.31,251.27 -73.62,517.16 -108.64,776.55 -9.81,72.64 -23.22,145.96 -41.4,217.88 -266.05,-27.34 -541.4,-87.76 -760.43,-229.55 65.83,-348.28 -7.16,-708.29 2,-1063.42 9.38,-363.93 144.95,-770.96 479.29,-914.99 346.47,-149.25 753.14,44.56 1120.63,-40.69 399.74,-92.73 646.52,-479.42 955.91,-748.98 104.43,-90.96 219.44,-169.06 341.65,-233.66 110,68.9 214.1,147.9 310.2,237.53 82,76.45 157.6,163.73 225.6,259.17 -16.5,15.05 -32.4,30.66 -47.4,46.81 z" />
    </clipPath>
    <linearGradient
       id="linearGradient378"
       spreadMethod="pad"
       gradientTransform="matrix(-370.683,-1381.63,-1381.63,370.683,8755.48,3185.35)"
       gradientUnits="userSpaceOnUse"
       y2="0"
       x2="1"
       y1="0"
       x1="0">
      <stop
         id="stop374"
         offset="0"
         style="stop-opacity:1;stop-color:#9b0b5a" />
      <stop
         id="stop376"
         offset="1"
         style="stop-opacity:1;stop-color:#64042e" />
    </linearGradient>
    <clipPath
       id="clipPath388"
       clipPathUnits="userSpaceOnUse">
      <path
         id="path386"
         d="m 10336.7,3550.85 c -98.8,219.3 -173.6,508.21 -409.34,555.83 -191.38,38.66 -375.91,-118.76 -570.44,-102.02 -212.85,18.32 -354.24,239.82 -385.98,451.09 -31.22,207.89 9.61,420.25 -6.25,629.82 -377.94,31.59 -742.6,23.41 -1018.61,-1.96 -12.35,-1.14 -24.73,-2.35 -37.13,-3.62 18.18,-71.92 31.59,-145.24 41.4,-217.88 35.02,-259.39 35.33,-525.28 108.64,-776.55 73.31,-251.27 239.33,-495.75 489.6,-572.38 331.92,-101.63 694.81,117.33 1031.22,31.75 248.12,-63.13 426.79,-278.9 554.99,-500.51 128.3,-221.6 227.1,-464.82 401.6,-652.21 15,-16.15 30.9,-31.76 47.4,-46.81 134.4,188.69 238.9,409.33 304,641.32 -239.3,122.21 -440.6,318.6 -551.1,564.13 z" />
    </clipPath>
    <linearGradient
       id="linearGradient394"
       spreadMethod="pad"
       gradientTransform="matrix(606.57,960.405,960.405,-606.57,8812.52,3022.97)"
       gradientUnits="userSpaceOnUse"
       y2="0"
       x2="1"
       y1="0"
       x1="0">
      <stop
         id="stop390"
         offset="0"
         style="stop-opacity:1;stop-color:#520322" />
      <stop
         id="stop392"
         offset="1"
         style="stop-opacity:1;stop-color:#820849" />
    </linearGradient>
    <clipPath
       clipPathUnits="userSpaceOnUse"
       id="clipPath540">
      <path
         d="M 0,800 H 800 V 0 H 0 Z"
         id="path538" />
    </clipPath>
    <filter
       style="color-interpolation-filters:sRGB"
       inkscape:label="Greyscale"
       id="filter1043">
      <feColorMatrix
         values="0.21 0.72 0.072 0 0 0.21 0.72 0.072 0 0 0.21 0.72 0.072 0 0 0 0 0 1 0 "
         id="feColorMatrix1041" />
    </filter>
  </defs>
  <sodipodi:namedview
     pagecolor="#ffffff"
     bordercolor="#666666"
     borderopacity="1"
     objecttolerance="10"
     gridtolerance="10"
     guidetolerance="10"
     inkscape:pageopacity="0"
     inkscape:pageshadow="2"
     inkscape:window-width="1366"
     inkscape:window-height="705"
     id="namedview4"
     showgrid="false"
     showguides="true"
     inkscape:guide-bbox="true"
     inkscape:zoom="0.25292668"
     inkscape:cx="-464.61197"
     inkscape:cy="872.56514"
     inkscape:window-x="-8"
     inkscape:window-y="-8"
     inkscape:window-maximized="1"
     inkscape:current-layer="g10"
     inkscape:document-rotation="0"
     fit-margin-top="0"
     fit-margin-left="0"
     fit-margin-right="0"
     fit-margin-bottom="0" />
  <g
     inkscape:groupmode="layer"
     inkscape:label="Image"
     id="g10"
     transform="translate(-4277.5223,140.11535)">
    <g
       id="g1221">
      <g
         id="g3470"
         transform="matrix(1.3333333,0,0,-1.3333333,3977.2319,689.64961)">
        <g
           id="g3464"
           transform="translate(502.8931,485.2397)">
          <path
             d="m 0,0 c -8.91,16.698 -29.688,23.005 -46.385,14.094 -10.521,-5.617 -16.898,-15.919 -17.983,-26.958 -2.785,-22.713 -16.184,-43.765 -37.898,-55.352 -35.419,-18.909 -79.493,-5.51 -98.397,29.91 -18.906,35.418 -5.504,79.48 29.917,98.387 21.691,11.576 46.636,11.002 67.029,0.686 0.37,-0.181 0.766,-0.346 1.119,-0.536 0.141,-0.076 0.279,-0.144 0.409,-0.201 9.466,-4.522 20.889,-4.667 30.86,0.654 16.658,8.89 22.954,29.624 14.06,46.282 -3.488,6.536 -8.792,11.454 -14.945,14.51 l 0.018,0.06 c -39.747,20.305 -88.408,21.52 -130.77,-1.091 -68.775,-36.709 -94.758,-122.202 -58.053,-190.967 36.698,-68.755 122.193,-94.759 190.968,-58.049 41.359,22.071 67.166,61.824 73.23,104.96 C 4.917,-15.883 4.023,-7.529 0,0"
             style="fill:#2e6885;fill-opacity:1;fill-rule:nonzero;stroke:none"
             id="path3462" />
        </g>
        <g
           id="g3468"
           transform="translate(498.7026,610.4126)">
          <path
             d="m 0,0 c -16.086,-8.587 -25.742,-24.491 -27.158,-41.394 -1.862,-17.482 -12.019,-33.73 -28.671,-42.623 -15.366,-8.195 -32.882,-8.327 -47.692,-1.877 -15.311,10.074 -35.505,11.687 -52.813,2.454 -25.192,-13.45 -34.724,-44.778 -21.271,-69.981 13.446,-25.195 44.782,-34.709 69.974,-21.265 16.226,8.66 25.914,24.784 27.168,41.894 2.192,17.013 12.262,32.749 28.546,41.441 16.658,8.893 35.854,8.297 51.41,0.123 l 0.155,0.183 c 14.776,-7.996 33.122,-8.7 49.052,-0.195 25.195,13.445 34.728,44.775 21.28,69.968 C 56.527,3.93 25.191,13.447 0,0"
             style="fill:#2e8532;fill-opacity:1;fill-rule:nonzero;stroke:none"
             id="path3466" />
        </g>
      </g>
      <path
         id="path1147"
         style="font-style:normal;font-variant:normal;font-weight:bold;font-stretch:normal;font-size:186.883px;line-height:1.25;font-family:Ubuntu;-inkscape-font-specification:'Ubuntu, Bold';font-variant-ligatures:normal;font-variant-caps:normal;font-variant-numeric:normal;font-variant-east-asian:normal;fill:#2e6885;fill-opacity:1;stroke:none;stroke-width:4.67208"
         d="m 4651.2879,367.6955 q 0,-13.08181 3.9245,-22.79973 4.1114,-9.9048 10.6523,-16.4457 6.5409,-6.54091 14.9507,-9.9048 8.5966,-3.3639 17.567,-3.3639 20.9309,0 33.0783,12.89493 12.1474,12.70804 12.1474,37.56348 0,2.42948 -0.1869,5.41961 -0.1869,2.80324 -0.3738,5.04584 h -63.1664 q 0.9344,8.59662 8.0359,13.64246 7.1016,5.04584 19.0621,5.04584 7.6622,0 14.9506,-1.30818 7.4754,-1.49506 12.1474,-3.55078 l 3.7377,22.61285 q -2.2426,1.12129 -5.9803,2.24259 -3.7376,1.1213 -8.4097,1.86883 -4.4852,0.93442 -9.7179,1.49506 -5.2327,0.56065 -10.4655,0.56065 -13.2687,0 -23.1735,-3.92454 -9.7179,-3.92454 -16.2588,-10.65233 -6.354,-6.91467 -9.531,-16.25882 -2.9901,-9.34415 -2.9901,-20.18336 z m 65.409,-10.65233 q -0.1869,-3.55078 -1.3082,-6.91468 -0.9344,-3.36389 -3.177,-5.98025 -2.0557,-2.61636 -5.4196,-4.29831 -3.177,-1.68195 -8.036,-1.68195 -4.672,0 -8.0359,1.68195 -3.3639,1.49506 -5.6065,4.11143 -2.2426,2.61636 -3.5508,6.16713 -1.1213,3.3639 -1.6819,6.91468 z m -174.5486,10.65233 q 0,-13.08181 3.9245,-22.79973 4.1114,-9.9048 10.6523,-16.4457 6.541,-6.54091 14.9507,-9.9048 8.5966,-3.3639 17.567,-3.3639 20.9309,0 33.0783,12.89493 12.1474,12.70804 12.1474,37.56348 0,2.42948 -0.1869,5.41961 -0.1869,2.80324 -0.3738,5.04584 h -63.1664 q 0.9344,8.59662 8.0359,13.64246 7.1016,5.04584 19.0621,5.04584 7.6622,0 14.9506,-1.30818 7.4754,-1.49506 12.1474,-3.55078 l 3.7377,22.61285 q -2.2426,1.12129 -5.9803,2.24259 -3.7376,1.1213 -8.4097,1.86883 -4.4852,0.93442 -9.7179,1.49506 -5.2327,0.56065 -10.4655,0.56065 -13.2686,0 -23.1734,-3.92454 -9.718,-3.92454 -16.2589,-10.65233 -6.354,-6.91467 -9.531,-16.25882 -2.9901,-9.34415 -2.9901,-20.18336 z m 65.409,-10.65233 q -0.1869,-3.55078 -1.3082,-6.91468 -0.9344,-3.36389 -3.177,-5.98025 -2.0557,-2.61636 -5.4196,-4.29831 -3.177,-1.68195 -8.0359,-1.68195 -4.6721,0 -8.036,1.68195 -3.3639,1.49506 -5.6065,4.11143 -2.2426,2.61636 -3.5508,6.16713 -1.1213,3.3639 -1.6819,6.91468 z m -167.8208,6.91467 q 0,-13.45558 -3.5508,-19.06207 -3.3639,-5.60649 -11.7736,-5.60649 -2.6164,0 -5.4196,0.37377 -2.8033,0.18688 -5.4196,0.56065 v 75.87449 h -27.8456 v -94.93656 q 3.5508,-0.93441 8.2229,-1.86883 4.8589,-1.1213 10.0916,-1.86883 5.4196,-0.93441 11.0261,-1.30818 5.6065,-0.56065 11.0261,-0.56065 10.6524,0 17.1933,2.80325 6.7278,2.61636 11.0261,6.35402 5.9802,-4.29831 13.6424,-6.72779 7.8491,-2.42948 14.39,-2.42948 11.7736,0 19.249,3.36389 7.6622,3.17702 12.1474,9.15727 4.4851,5.98026 6.1671,14.20311 1.6819,8.22285 1.6819,18.31453 v 55.50425 h -27.8455 v -52.14035 q 0,-13.45558 -3.5508,-19.06207 -3.3639,-5.60649 -11.7736,-5.60649 -2.2426,0 -6.3541,1.1213 -3.9245,1.1213 -6.5409,2.80324 1.3082,4.29831 1.682,9.15727 0.3738,4.67208 0.3738,10.09168 v 53.63542 h -27.8456 z m -134.3686,-10.65233 q 4.1114,-4.4852 8.4097,-9.34415 4.4852,-4.85896 8.5966,-9.53104 4.1115,-4.85895 7.6622,-9.15726 3.7377,-4.29831 6.3541,-7.47532 h 33.0782 q -9.9048,11.39986 -19.4358,21.86531 -9.3441,10.27856 -20.5571,21.30466 5.6065,5.04584 11.5867,12.14739 5.9803,6.91467 11.5868,14.38999 5.6065,7.47532 10.2785,14.95064 4.6721,7.47532 7.8491,13.64246 h -31.957 q -2.9901,-4.85896 -6.9146,-10.65233 -3.7377,-5.98025 -8.036,-11.77363 -4.2983,-5.98025 -9.1573,-11.39986 -4.672,-5.41961 -9.3441,-9.15727 v 42.98309 h -27.8456 V 275.56218 l 27.8456,-4.48519 z" />
    </g>
  </g>
</svg>
