<svg id="_x31__x2C_5" enable-background="new 0 0 36 36" height="512" viewBox="0 0 36 36" width="512" xmlns="http://www.w3.org/2000/svg"><path d="m8.377 4.167c6.917 0 11.667-3.583 15-3.583s10.333 1.916 10.333 17.249-9.417 17.583-13.083 17.583c-17.167.001-24.5-31.249-12.25-31.249z" fill="#f3f3f1"/><path d="m28.75 4.75h1v2h-1z" fill="#a4afc1"/><path d="m31 7.75h2v1h-2z" fill="#a4afc1"/><circle cx="18" cy="18" fill="#efefef" r="11.5"/><path d="m20 14.75c0-1.105-.895-2-2-2s-2 .895-2 2h-.75v5.75c0 1.519 1.231 2.75 2.75 2.75s2.75-1.231 2.75-2.75v-5.75z" fill="#2fdf84"/><path d="m8.75 18c0-5.971 4.552-10.878 10.375-11.443-.37-.036-.745-.057-1.125-.057-6.351 0-11.5 5.149-11.5 11.5s5.149 11.5 11.5 11.5c.38 0 .755-.021 1.125-.057-5.823-.565-10.375-5.472-10.375-11.443z" fill="#d5dbe1"/><path d="m17.5 20.5v-5.75h.75c0-.687.347-1.293.875-1.653-.321-.219-.708-.347-1.125-.347-1.105 0-2 .895-2 2h-.75v5.75c0 1.519 1.231 2.75 2.75 2.75.402 0 .781-.091 1.125-.246-.956-.43-1.625-1.387-1.625-2.504z" fill="#00b871"/><path d="m18 30.25c-6.755 0-12.25-5.495-12.25-12.25s5.495-12.25 12.25-12.25 12.25 5.495 12.25 12.25-5.495 12.25-12.25 12.25zm0-23c-5.928 0-10.75 4.822-10.75 10.75s4.822 10.75 10.75 10.75 10.75-4.822 10.75-10.75-4.822-10.75-10.75-10.75z"/><path d="m6.521 17.25h22.959v1.5h-22.959z" transform="matrix(.707 -.707 .707 .707 -7.456 18)"/><path d="m20 15.5h-4c-.414 0-.75-.336-.75-.75 0-1.517 1.233-2.75 2.75-2.75s2.75 1.233 2.75 2.75c0 .414-.336.75-.75.75zm-3-1.5h2c-.229-.304-.591-.5-1-.5s-.771.196-1 .5z"/><path d="m19.601 14.3c-.069 0-.139-.01-.208-.029-.398-.115-.628-.53-.513-.929.397-1.379 1.68-2.342 3.12-2.342.414 0 .75.336.75.75s-.336.75-.75.75c-.775 0-1.466.518-1.679 1.258-.095.328-.395.542-.72.542z"/><path d="m16.399 14.3c-.326 0-.625-.214-.72-.542-.213-.74-.904-1.258-1.679-1.258-.414 0-.75-.336-.75-.75s.336-.75.75-.75c1.44 0 2.723.963 3.121 2.342.115.398-.115.813-.513.929-.07.019-.14.029-.209.029z"/><path d="m23.75 23c-.275 0-.54-.151-.671-.415l-.886-1.771-1.771-.858c-.373-.181-.528-.629-.348-1.002s.629-.527 1.002-.348l2 .97c.149.072.27.191.344.34l1 2c.185.37.035.82-.335 1.006-.107.053-.222.078-.335.078z"/><path d="m15.25 18c-.06 0-.121-.007-.183-.022l-2-.5c-.212-.053-.391-.196-.489-.393l-1-2c-.185-.37-.035-.82.335-1.006.372-.185.822-.035 1.006.336l.846 1.691 1.666.416c.402.101.646.508.545.909-.083.341-.39.569-.726.569z"/><path d="m12.25 23c-.113 0-.227-.025-.335-.079-.371-.186-.521-.636-.335-1.006l1-2c.074-.148.195-.268.344-.34l2-.97c.374-.179.822-.025 1.002.348.181.373.025.821-.348 1.002l-1.771.858-.886 1.771c-.131.265-.397.416-.671.416z"/><path d="m15.25 21.25c-.414 0-.75-.336-.75-.75v-5.75c0-.414.336-.75.75-.75h5.5c.414 0 .75.336.75.75v.5c0 .414-.336.75-.75.75-.327 0-.604-.209-.708-.5h-4.042v5c0 .414-.336.75-.75.75z"/><path d="m18 24c-.374 0-.757-.062-1.107-.178-.393-.131-.605-.556-.475-.948.13-.394.555-.604.948-.476.2.067.419.102.634.102 1.103 0 2-.897 2-2v-1.22c0-.414.336-.75.75-.75s.75.336.75.75v1.22c0 1.93-1.57 3.5-3.5 3.5z"/><path d="m18 18.75c-.414 0-.75-.336-.75-.75v-3.25c0-.414.336-.75.75-.75s.75.336.75.75v3.25c0 .414-.336.75-.75.75z"/></svg>