<svg id="_x31__x2C_5" enable-background="new 0 0 36 36" height="512" viewBox="0 0 36 36" width="512" xmlns="http://www.w3.org/2000/svg"><path d="m4.167 8.377c0 6.917-3.583 11.667-3.583 15s1.916 10.333 17.249 10.333 17.583-9.417 17.583-13.083c.001-17.167-31.249-24.5-31.249-12.25z" fill="#efefef"/><path d="m5.125 2h1v2h-1z" fill="#a4afc1"/><path d="m1.875 5h2v1h-2z" fill="#a4afc1"/><path d="m28.25 9.75h-20.5c-.552 0-1-.448-1-1v-1c0-.552.448-1 1-1h20.5c.552 0 1 .448 1 1v1c0 .552-.448 1-1 1z" fill="#2fdf84"/><path d="m8.75 9.75h18.5v13.5h-18.5z" fill="#f3f3f1"/><path d="m9 8.75v-1c0-.552.448-1 1-1h-2.25c-.552 0-1 .448-1 1v1c0 .552.448 1 1 1h2.25c-.552 0-1-.448-1-1z" fill="#00b871"/><path d="m8.75 9.75h2.25v13.5h-2.25z" fill="#d5dbe1"/><path d="m19.021 15.75h5.479v1.5h-5.479z"/><path d="m21.672 20.139-1.061-1.061 2.578-2.579-2.578-2.579 1.061-1.061 3.108 3.109c.293.293.293.768 0 1.061z"/><path d="m11.5 15.75h5.479v1.5h-5.479z"/><path d="m14.328 20.139-3.108-3.109c-.293-.293-.293-.768 0-1.061l3.108-3.109 1.061 1.061-2.578 2.579 2.578 2.579z"/><path d="m28.25 10.5h-20.5c-.965 0-1.75-.785-1.75-1.75v-1c0-.965.785-1.75 1.75-1.75h20.5c.965 0 1.75.785 1.75 1.75v1c0 .965-.785 1.75-1.75 1.75zm-20.5-3c-.138 0-.25.112-.25.25v1c0 .138.112.25.25.25h20.5c.138 0 .25-.112.25-.25v-1c0-.138-.112-.25-.25-.25z"/><path d="m7 22.5h22v1.5h-22z"/><path d="m17.25 23.5h1.5v5.75h-1.5z"/><path d="m21.646 29.696-3.646-4.934-3.646 4.934-1.207-.892 4.25-5.75c.283-.383.924-.383 1.207 0l4.25 5.75z"/><path d="m2 28.5h32v1.5h-32z"/><path d="m8 9.75h1.5v13.5h-1.5z"/><path d="m26.5 9.75h1.5v13.5h-1.5z"/></svg>