<svg id="_x31__x2C_5" enable-background="new 0 0 36 36" height="512" viewBox="0 0 36 36" width="512" xmlns="http://www.w3.org/2000/svg"><g><path d="m8.377 4.167c6.917 0 11.667-3.583 15-3.583s10.333 1.916 10.333 17.249-9.417 17.583-13.083 17.583c-17.167.001-24.5-31.249-12.25-31.249z" fill="#efefef"/></g><g><path d="m5.5 7c-.827 0-1.5-.673-1.5-1.5s.673-1.5 1.5-1.5 1.5.673 1.5 1.5-.673 1.5-1.5 1.5zm0-2c-.275 0-.5.224-.5.5s.225.5.5.5.5-.224.5-.5-.225-.5-.5-.5z" fill="#a4afc1"/></g><g><circle cx="18" cy="18" fill="#f3f3f1" r="11.25"/></g><g><path d="m9 18c0-5.833 4.44-10.629 10.125-11.193-.37-.037-.745-.057-1.125-.057-6.213 0-11.25 5.037-11.25 11.25s5.037 11.25 11.25 11.25c.38 0 .755-.02 1.125-.057-5.685-.564-10.125-5.36-10.125-11.193z" fill="#d5dbe1"/></g><g><path d="m17 22h-3.25c-.414 0-.75-.336-.75-.75v-1.75c0-1.241 1.01-2.25 2.25-2.25.138 0 .25-.112.25-.25v-1.25c0-.138-.112-.25-.25-.25h-2.25v-1.5h2.25c.965 0 1.75.785 1.75 1.75v1.25c0 .965-.785 1.75-1.75 1.75-.413 0-.75.336-.75.75v1h2.5z"/></g><g><path d="m21.5 14h1.5v8h-1.5z"/></g><g><path d="m23 19h-2.75c-.965 0-1.75-.785-1.75-1.75v-3.25h1.5v3.25c0 .138.112.25.25.25h2.75z"/></g><g><path d="m18 30c-6.617 0-12-5.383-12-12s5.383-12 12-12 12 5.383 12 12-5.383 12-12 12zm0-22.5c-5.79 0-10.5 4.71-10.5 10.5s4.71 10.5 10.5 10.5 10.5-4.71 10.5-10.5-4.71-10.5-10.5-10.5z"/></g><g><path d="m17.25 26h1.5v4h-1.5z"/></g><g><path d="m17.25 6h1.5v4h-1.5z"/></g><g><path d="m6 17.25h4v1.5h-4z"/></g><g><path d="m26 17.25h4v1.5h-4z"/></g></svg>