<svg id="_x31__x2C_5" enable-background="new 0 0 36 36" height="512" viewBox="0 0 36 36" width="512" xmlns="http://www.w3.org/2000/svg"><g><path d="m31.833 27.623c0-6.917 3.583-11.667 3.583-15s-1.916-10.333-17.249-10.333-17.584 9.417-17.584 13.083c0 17.167 31.25 24.5 31.25 12.25z" fill="#efefef"/></g><g><path d="m9.5 8c-.827 0-1.5-.673-1.5-1.5s.673-1.5 1.5-1.5 1.5.673 1.5 1.5-.673 1.5-1.5 1.5zm0-2c-.276 0-.5.225-.5.5s.224.5.5.5.5-.225.5-.5-.224-.5-.5-.5z" fill="#a4afc1"/></g><g><path d="m25.5 29.25h-18.75v-16.5l10.5 4v-4l8.25 2.75z" fill="#f3f3f1"/></g><g><path d="m29.25 29.25h-4.5l1-22.5h2.5z" fill="#2fdf84"/></g><g><path d="m19.5 16.75v-3.25l-2.25-.75v3.143z" fill="#d5dbe1"/></g><g><path d="m6.75 12.75v16.5h2.25v-15.643z" fill="#d5dbe1"/></g><g><path d="m25.75 6.75-1 22.5h2.25l1-22.5z" fill="#00b871"/></g><g><path d="m7.5 29.25h-1.5v-16.5c0-.247.121-.478.324-.617.204-.142.463-.169.693-.084l9.483 3.613v-2.912c0-.243.118-.472.317-.612s.452-.178.683-.095l8.11 2.86-.499 1.414-7.111-2.507v2.94c0 .247-.121.478-.324.617-.204.141-.463.17-.693.084l-9.483-3.613z"/></g><g><path d="m25.93 9h2.39v1.5h-2.39z"/></g><g><path d="m9 19h3v1.5h-3z"/></g><g><path d="m14 19h3v1.5h-3z"/></g><g><path d="m19 19h3.25v1.5h-3.25z"/></g><g><path d="m9 22h3v1.5h-3z"/></g><g><path d="m14 22h3v1.5h-3z"/></g><g><path d="m19 22h3.25v1.5h-3.25z"/></g><g><path d="m9 25h3v1.5h-3z"/></g><g><path d="m14 25h3v1.5h-3z"/></g><g><path d="m19 25h3.25v1.5h-3.25z"/></g><g><path d="m2 28.5h32v1.5h-32z"/></g><g><path d="m28.501 29.283-.968-21.783h-1.065l-.968 21.783-1.498-.066 1-22.5c.017-.402.347-.717.748-.717h2.5c.401 0 .731.315.749.717l1 22.5z"/></g></svg>