<svg id="_x31__x2C_5" enable-background="new 0 0 36 36" height="512" viewBox="0 0 36 36" width="512" xmlns="http://www.w3.org/2000/svg"><path d="m27.623 31.833c-6.917 0-11.667 3.583-15 3.583s-10.333-1.916-10.333-17.249 9.417-17.584 13.083-17.584c17.167 0 24.5 31.25 12.25 31.25z" fill="#efefef"/><g fill="#a4afc1"><path d="m30.5 24c-.827 0-1.5-.673-1.5-1.5s.673-1.5 1.5-1.5 1.5.673 1.5 1.5-.673 1.5-1.5 1.5zm0-2c-.275 0-.5.224-.5.5s.225.5.5.5.5-.224.5-.5-.225-.5-.5-.5z"/><path d="m1.644 4.967h1v2h-1z" transform="matrix(.707 -.707 .707 .707 -3.591 3.262)"/><path d="m.967 9.533h2v1h-2z" transform="matrix(.707 -.707 .707 .707 -6.518 4.329)"/><path d="m5.033 5.467h2v1h-2z" transform="matrix(.707 -.707 .707 .707 -2.452 6.014)"/></g><path d="m8.75 13.75h15.5v10.5h-15.5z" fill="#f3f3f1"/><path d="m29.25 16.295c0 .525-.433.955-.962.955h-10.576c-.529 0-.962-.43-.962-.955 0-.181.048-.353.144-.496l5.288-8.591c.164-.277.472-.458.818-.458s.654.181.817.458l5.288 8.591c.097.143.145.315.145.496z" fill="#2fdf84"/><path d="m21.25 10.75h-13.5c-.55 0-1 .45-1 1v1c0 .55.45 1 1 1h13.5z" fill="#2fdf84"/><path d="m8.75 13.75h2.25v10.5h-2.25z" fill="#d5dbe1"/><path d="m19 16.295c0-.181.048-.353.144-.496l4.981-8.091-.308-.5c-.163-.277-.471-.458-.817-.458s-.654.181-.817.458l-5.289 8.591c-.096.143-.144.315-.144.496 0 .525.433.955.962.955h2.25c-.529 0-.962-.43-.962-.955z" fill="#00b871"/><path d="m9 12.75v-1c0-.55.45-1 1-1h-2.25c-.55 0-1 .45-1 1v1c0 .55.45 1 1 1h2.25c-.55 0-1-.45-1-1z" fill="#00b871"/><path d="m28.288 18h-10.576c-.944 0-1.712-.765-1.712-1.705 0-.334.094-.651.272-.916l5.271-8.565c.294-.497.854-.814 1.457-.814s1.163.317 1.464.827l5.28 8.579c.162.239.256.555.256.889 0 .94-.768 1.705-1.712 1.705zm-5.288-10.5c-.088 0-.147.048-.171.089l-5.329 8.706c0 .111.097.205.212.205h10.576c.115 0 .212-.094.212-.205 0-.033-.006-.062-.017-.078l-5.305-8.617c-.031-.052-.09-.1-.178-.1z"/><path d="m15 14.5h-7.25c-.965 0-1.75-.785-1.75-1.75v-1c0-.965.785-1.75 1.75-1.75h9.25v1.5h-9.25c-.136 0-.25.114-.25.25v1c0 .136.114.25.25.25h7.25z"/><path d="m7 23.5h19v1.5h-19z"/><path d="m19.661 29.715-3.161-4.005-3.161 4.004-1.178-.93 3.75-4.75c.285-.36.893-.36 1.178 0l3.75 4.75z"/><path d="m22.25 10h1.5v3.5h-1.5z"/><circle cx="23" cy="15.25" r=".75"/><path d="m2 28.5h32v1.5h-32z"/><path d="m8 13.75h1.5v10.5h-1.5z"/><path d="m23.5 20.75h1.5v3.5h-1.5z"/></svg>