<svg id="_x31__x2C_5" enable-background="new 0 0 36 36" height="512" viewBox="0 0 36 36" width="512" xmlns="http://www.w3.org/2000/svg"><path d="m27.623 31.833c-6.917 0-11.667 3.583-15 3.583s-10.333-1.916-10.333-17.249 9.417-17.584 13.083-17.584c17.167 0 24.5 31.25 12.25 31.25z" fill="#efefef"/><path d="m14.5 6c-.827 0-1.5-.673-1.5-1.5s.673-1.5 1.5-1.5 1.5.673 1.5 1.5-.673 1.5-1.5 1.5zm0-2c-.276 0-.5.224-.5.5s.224.5.5.5.5-.224.5-.5-.224-.5-.5-.5z" fill="#a4afc1"/><path d="m29.25 10.542c0-2.113-1.709-3.822-3.806-3.791-1.984.029-3.656 1.712-3.694 3.717-.023 1.238.54 2.343 1.428 3.051.534.426.879 1.045.879 1.732v1.245c0 .497.258.755.577.755h1.731c.319 0 .577-.261.577-.583v-1.319c0-.738.367-1.405.932-1.872.84-.697 1.376-1.752 1.376-2.935z" fill="#2fdf84"/><path d="m16.342 28.602.908-8.852h-8.5l.908 8.852c.052.51.482.898.995.898h4.695c.512 0 .942-.388.994-.898z" fill="#2fdf84"/><g fill="#f3f3f1"><circle cx="13" cy="12" r="1.25"/><path d="m9.75 17.25c0-.828.672-1.5 1.5-1.5h3.5c.828 0 1.5.672 1.5 1.5v2.5h-6.5z"/><path d="m21.25 29.25c0-.828-.672-1.5-1.5-1.5h-1.5c-.828 0-1.5.672-1.5 1.5v.75h4.5z"/><path d="m29.25 29.25c0-.828-.672-1.5-1.5-1.5h-1.5c-.828 0-1.5.672-1.5 1.5v.75h4.5z"/></g><path d="m26.308 16.495v-1.245c0-.687-.346-1.306-.879-1.732-.888-.708-1.451-1.813-1.428-3.051.031-1.633 1.151-3.035 2.635-3.521-.377-.122-.773-.202-1.191-.196-1.984.029-3.656 1.712-3.694 3.717-.023 1.238.54 2.343 1.428 3.051.534.426.879 1.045.879 1.732v1.245c0 .497.258.755.577.755h1.731c.097 0 .183-.03.263-.072-.189-.106-.321-.331-.321-.683z" fill="#00b871"/><path d="m11.908 28.602-.908-8.852h-2.25l.908 8.852c.052.51.482.898.995.898h2.25c-.513 0-.943-.388-.995-.898z" fill="#00b871"/><path d="m14 12c0-.19.049-.365.125-.526-.2-.425-.625-.724-1.125-.724-.69 0-1.25.56-1.25 1.25s.56 1.25 1.25 1.25c.5 0 .925-.299 1.125-.724-.076-.161-.125-.336-.125-.526z" fill="#d5dbe1"/><path d="m13.5 15.75h-2.25c-.828 0-1.5.672-1.5 1.5v2.5h2.25v-2.5c0-.828.672-1.5 1.5-1.5z" fill="#d5dbe1"/><path d="m20.125 27.803c-.121-.031-.245-.053-.375-.053h-1.5c-.828 0-1.5.672-1.5 1.5v.75h2.25v-.75c0-.698.479-1.28 1.125-1.447z" fill="#d5dbe1"/><path d="m28.125 27.803c-.121-.031-.245-.053-.375-.053h-1.5c-.828 0-1.5.672-1.5 1.5v.75h2.25v-.75c0-.698.479-1.28 1.125-1.447z" fill="#d5dbe1"/><path d="m26.365 18h-1.73c-.66 0-1.327-.517-1.327-1.505v-1.245c0-.425-.218-.843-.597-1.146-1.114-.889-1.737-2.22-1.71-3.652.046-2.42 2.035-4.417 4.433-4.453 1.194-.033 2.347.441 3.21 1.292.875.863 1.356 2.017 1.356 3.251 0 1.365-.6 2.645-1.647 3.512-.42.348-.661.819-.661 1.294v1.319c0 .735-.595 1.333-1.327 1.333zm-1.557-1.5h1.385v-1.152c0-.923.439-1.816 1.204-2.45.702-.581 1.104-1.44 1.104-2.356 0-.829-.323-1.604-.909-2.181-.575-.566-1.34-.907-2.135-.86-1.572.023-2.925 1.388-2.955 2.981-.019.962.399 1.855 1.146 2.451.738.589 1.162 1.434 1.162 2.318v1.245c-.002.001-.002.003-.002.004z"/><path d="m14 30h-4.25c-.383 0-.705-.289-.746-.669l-1.081-9.996 1.491-.161 1.008 9.326h3.578z"/><path d="m6 19h14v1.5h-14z"/><path d="m13 14c-1.103 0-2-.897-2-2s.897-2 2-2 2 .897 2 2-.897 2-2 2zm0-2.5c-.276 0-.5.224-.5.5s.224.5.5.5.5-.224.5-.5-.224-.5-.5-.5z"/><path d="m17 18h-1.5v-.75c0-.414-.336-.75-.75-.75h-3.5c-.414 0-.75.336-.75.75v.75h-1.5v-.75c0-1.241 1.009-2.25 2.25-2.25h3.5c1.241 0 2.25 1.009 2.25 2.25z"/><circle cx="27" cy="24.5" r="1.5"/><path d="m30 30h-1.5v-.75c0-.414-.336-.75-.75-.75h-1.5c-.414 0-.75.336-.75.75v.75h-1.5v-.75c0-1.241 1.009-2.25 2.25-2.25h1.5c1.241 0 2.25 1.009 2.25 2.25z"/><circle cx="19" cy="24.5" r="1.5"/><path d="m22 30h-1.5v-.75c0-.414-.336-.75-.75-.75h-1.5c-.414 0-.75.336-.75.75v.75h-1.5v-.75c0-1.241 1.009-2.25 2.25-2.25h1.5c1.241 0 2.25 1.009 2.25 2.25z"/></svg>