<svg id="_x31__x2C_5" enable-background="new 0 0 36 36" height="512" viewBox="0 0 36 36" width="512" xmlns="http://www.w3.org/2000/svg"><path d="m8.377 4.167c6.917 0 11.667-3.583 15-3.583s10.333 1.916 10.333 17.249-9.417 17.583-13.083 17.583c-17.167.001-24.5-31.249-12.25-31.249z" fill="#efefef"/><g fill="#a4afc1"><path d="m3.555 1.467h1v2h-1z" transform="matrix(.707 -.707 .707 .707 -.557 3.59)"/><path d="m7.621 5.533h1v2h-1z" transform="matrix(.707 -.707 .707 .707 -2.241 7.656)"/><path d="m2.878 6.033h2v1h-2z" transform="matrix(.707 -.707 .707 .707 -3.484 4.656)"/><path d="m6.944 1.967h2v1h-2z" transform="matrix(.707 -.707 .707 .707 .583 6.34)"/></g><path d="m8.75 13.75h15.5v10.5h-15.5z" fill="#f3f3f1"/><path d="m20.25 17.25h-.5c-.552 0-1-.448-1-1v-4.5c0-.552.448-1 1-1h.5c.552 0 1 .448 1 1v4.5c0 .55-.45 1-1 1z" fill="#2fdf84"/><path d="m21.22 11.09c.56-.35 1.97-1.36 1.97-2.67 0-1.17.49-1.65.95-1.65.47 0 1.17.71 1.17 2.11 0 1.17-.47 1.87-.47 1.87h2.5c1.07 0 1.91.88 1.91 1.91 0 .27-.55 2.99-.56 2.99-.15.92-1 1.6-1.94 1.6h-.51c-2.68 0-4.43-.69-4.99-1.01z" fill="#2fdf84"/><path d="m23.75 10.75h-16c-.55 0-1 .45-1 1v1c0 .55.45 1 1 1h16z" fill="#2fdf84"/><path d="m8.75 13.75h2.25v10.5h-2.25z" fill="#d5dbe1"/><path d="m21 16.25v-4.5c0-.168.052-.319.125-.458-.167-.318-.491-.542-.875-.542h-.5c-.552 0-1 .448-1 1v4.5c0 .552.448 1 1 1h.5c.383 0 .706-.225.874-.543-.072-.138-.124-.289-.124-.457z" fill="#00b871"/><path d="m23.5 16.24-.03-5.15c.457-.286 1.468-1.014 1.829-1.983.004-.075.011-.147.011-.227 0-1.4-.7-2.11-1.17-2.11-.46 0-.95.48-.95 1.65 0 1.31-1.41 2.32-1.97 2.67l.03 5.15c.56.32 2.31 1.01 4.99 1.01h.51c.157 0 .309-.025.457-.061-1.951-.17-3.243-.684-3.707-.949z" fill="#00b871"/><path d="m9 12.75v-1c0-.55.45-1 1-1h-2.25c-.55 0-1 .45-1 1v1c0 .55.45 1 1 1h2.25c-.55 0-1-.45-1-1z" fill="#00b871"/><path d="m16 14.5h-8.25c-.965 0-1.75-.785-1.75-1.75v-1c0-.965.785-1.75 1.75-1.75h8.25v1.5h-8.25c-.136 0-.25.114-.25.25v1c0 .136.114.25.25.25h8.25z"/><path d="m7 23.5h19v1.5h-19z"/><path d="m19.661 29.715-3.161-4.005-3.161 4.004-1.178-.93 3.75-4.75c.285-.36.893-.36 1.178 0l3.75 4.75z"/><path d="m20.25 18h-.5c-.965 0-1.75-.785-1.75-1.75v-4.5c0-.965.785-1.75 1.75-1.75h.5c.965 0 1.75.785 1.75 1.75v4.5c0 .965-.785 1.75-1.75 1.75zm-.5-6.5c-.138 0-.25.112-.25.25v4.5c0 .138.112.25.25.25h.5c.136 0 .25-.114.25-.25v-4.5c0-.138-.112-.25-.25-.25z"/><path d="m26.75 18h-.51c-2.759 0-4.387-.694-5.112-1.108l.744-1.303c.479.274 1.865.911 4.368.911h.51c.584 0 1.111-.426 1.2-.971.005-.029.011-.058.019-.086.072-.31.509-2.511.532-2.811-.001-.611-.522-1.132-1.161-1.132h-2.5c-.277 0-.532-.153-.662-.397s-.115-.541.039-.771.343-.551.343-1.452c0-.897-.353-1.317-.481-1.368.042.029-.139.259-.139.908 0 1.674-1.624 2.87-2.322 3.306l-.795-1.272c.782-.488 1.617-1.279 1.617-2.034 0-1.658.854-2.4 1.7-2.4.944 0 1.92 1.07 1.92 2.86 0 .427-.053.803-.127 1.12h1.407c1.467 0 2.66 1.193 2.66 2.66 0 .093 0 .248-.29 1.739-.124.637-.208 1.072-.292 1.369l.012.002c-.207 1.272-1.359 2.23-2.68 2.23z"/><path d="m2 28.5h32v1.5h-32z"/><path d="m8 13.75h1.5v10.5h-1.5z"/><path d="m23.5 20.75h1.5v3.5h-1.5z"/></svg>